<svg preserveAspectRatio="none" overflow="visible" style="display: block;" width="14.3178" height="10" viewBox="0 0 14.3178 10" fill="none" xmlns="http://www.w3.org/2000/svg">
<g id="Frame 31">
<path id="Ellipse 8" d="M12 5C12 4.34339 11.8707 3.69321 11.6194 3.08658C11.3681 2.47995 10.9998 1.92876 10.5355 1.46447C10.0712 1.00017 9.52004 0.631876 8.91342 0.380602C8.30679 0.129329 7.65661 -2.87013e-08 7 0C6.34339 2.87013e-08 5.69321 0.129329 5.08658 0.380602C4.47995 0.631876 3.92876 1.00017 3.46447 1.46447C3.00017 1.92876 2.63188 2.47996 2.3806 3.08658C2.12933 3.69321 2 4.34339 2 5L7 5H12Z" fill="#009540"/>
<path id="Ellipse 9" d="M2 5C2 5.65661 2.12933 6.30679 2.3806 6.91342C2.63188 7.52005 3.00017 8.07124 3.46447 8.53553C3.92876 8.99983 4.47995 9.36812 5.08658 9.6194C5.69321 9.87067 6.34339 10 7 10C7.65661 10 8.30679 9.87067 8.91342 9.6194C9.52005 9.36812 10.0712 8.99983 10.5355 8.53553C10.9998 8.07124 11.3681 7.52004 11.6194 6.91342C11.8707 6.30679 12 5.65661 12 5L7 5L2 5Z" fill="#3B82F6"/>
<line id="Line 6" y1="4.95" x2="14.3178" y2="4.95" stroke="black" stroke-width="0.7"/>
</g>
</svg>
